<svg xmlns="http://www.w3.org/2000/svg" viewBox="0 0 512 512" width="512" height="512">
  <!-- Background -->
  <rect width="512" height="512" fill="#050505"/>
  <!-- Diamond (Rotated Square) -->
  <rect x="156" y="156" width="200" height="200" fill="#CCFF00" rx="12" transform="rotate(45 256 256)"/>
  <!-- EyeOff Icon (Upright) -->
  <g transform="translate(196, 196) scale(5)" stroke="#000000" stroke-width="2.5" stroke-linecap="round" stroke-linejoin="round" fill="none">
    <path d="M9.88 9.88a3 3 0 1 0 4.24 4.24" />
    <path d="M10.73 5.08A10.43 10.43 0 0 1 12 5c7 0 10 7 10 7a13.16 13.16 0 0 1-1.67 2.68" />
    <path d="M6.61 6.61A13.52 13.52 0 0 0 2 12s3 7 10 7a9.74 9.74 0 0 0 5.39-1.61" />
    <line x1="2" x2="22" y1="2" y2="22" />
  </g>
</svg>
