<svg xmlns="http://www.w3.org/2000/svg" width="1200" height="630" viewBox="0 0 1200 630">
  <!-- Background -->
  <rect width="1200" height="630" fill="#050505"/>
  <!-- Frame border (matches site) -->
  <rect x="4" y="4" width="1192" height="622" fill="none" stroke="#111111" stroke-width="8"/>

  <!-- Logo (diamond + eye-off), scaled from the 512 source -->
  <g transform="translate(96, 232) scale(0.37109)">
    <rect x="156" y="156" width="200" height="200" fill="#CCFF00" rx="12" transform="rotate(45 256 256)"/>
    <g transform="translate(196, 196) scale(5)" stroke="#000000" stroke-width="2.5" stroke-linecap="round" stroke-linejoin="round" fill="none">
      <path d="M9.88 9.88a3 3 0 1 0 4.24 4.24" />
      <path d="M10.73 5.08A10.43 10.43 0 0 1 12 5c7 0 10 7 10 7a13.16 13.16 0 0 1-1.67 2.68" />
      <path d="M6.61 6.61A13.52 13.52 0 0 0 2 12s3 7 10 7a9.74 9.74 0 0 0 5.39-1.61" />
      <line x1="2" x2="22" y1="2" y2="22" />
    </g>
  </g>

  <!-- Text block -->
  <text x="326" y="262" font-family="DejaVu Sans, sans-serif" font-size="84" font-weight="bold" letter-spacing="-3" fill="#FFFFFF">The private</text>
  <text x="326" y="348" font-family="DejaVu Sans, sans-serif" font-size="84" font-weight="bold" letter-spacing="-3" fill="#FFFFFF">database.</text>

  <!-- Accent line (matches the homepage hero) -->
  <rect x="330" y="388" width="4" height="118" fill="#CCFF00"/>
  <text x="356" y="418" font-family="DejaVu Sans, sans-serif" font-size="25" fill="#aaaaaa">Run normal SQL on data that stays encrypted.</text>
  <text x="356" y="452" font-family="DejaVu Sans, sans-serif" font-size="25" fill="#aaaaaa">Even during computation.</text>
  <text x="356" y="486" font-family="DejaVu Sans, sans-serif" font-size="25" fill="#aaaaaa">Post-quantum secure. Built for real apps.</text>
</svg>
